<mxfile host="app.diagrams.net" agent="Mozilla/5.0 (X11; Linux x86_64) AppleWebKit/537.36 (KHTML, like Gecko) Chrome/134.0.0.0 Safari/537.36 Edg/134.0.0.0" version="28.2.3">
  <diagram name="第 1 页" id="NCsJXEQHVqjGF3GBmv68">
    <mxGraphModel dx="1109" dy="843" grid="1" gridSize="10" guides="1" tooltips="1" connect="1" arrows="1" fold="1" page="1" pageScale="1" pageWidth="827" pageHeight="1169" math="0" shadow="0">
      <root>
        <mxCell id="0" />
        <mxCell id="1" parent="0" />
        <mxCell id="pQwcLOvFqo98Sgp6cZVr-1" value="" style="ellipse;whiteSpace=wrap;html=1;aspect=fixed;" parent="1" vertex="1">
          <mxGeometry x="200" y="200" width="40" height="40" as="geometry" />
        </mxCell>
        <mxCell id="pQwcLOvFqo98Sgp6cZVr-2" value="" style="ellipse;whiteSpace=wrap;html=1;aspect=fixed;" parent="1" vertex="1">
          <mxGeometry x="200" y="260" width="40" height="40" as="geometry" />
        </mxCell>
        <mxCell id="pQwcLOvFqo98Sgp6cZVr-3" value="" style="ellipse;whiteSpace=wrap;html=1;aspect=fixed;" parent="1" vertex="1">
          <mxGeometry x="200" y="320" width="40" height="40" as="geometry" />
        </mxCell>
        <mxCell id="pQwcLOvFqo98Sgp6cZVr-33" style="rounded=0;orthogonalLoop=1;jettySize=auto;html=1;exitX=1;exitY=0.5;exitDx=0;exitDy=0;entryX=0;entryY=0.5;entryDx=0;entryDy=0;startArrow=classic;startFill=1;" parent="1" source="pQwcLOvFqo98Sgp6cZVr-4" target="pQwcLOvFqo98Sgp6cZVr-10" edge="1">
          <mxGeometry relative="1" as="geometry" />
        </mxCell>
        <mxCell id="pQwcLOvFqo98Sgp6cZVr-34" style="rounded=0;orthogonalLoop=1;jettySize=auto;html=1;exitX=1;exitY=0.5;exitDx=0;exitDy=0;entryX=0;entryY=0.5;entryDx=0;entryDy=0;startArrow=none;startFill=0;" parent="1" source="pQwcLOvFqo98Sgp6cZVr-4" target="pQwcLOvFqo98Sgp6cZVr-29" edge="1">
          <mxGeometry relative="1" as="geometry" />
        </mxCell>
        <mxCell id="pQwcLOvFqo98Sgp6cZVr-4" value="" style="ellipse;whiteSpace=wrap;html=1;aspect=fixed;" parent="1" vertex="1">
          <mxGeometry x="200" y="420" width="40" height="40" as="geometry" />
        </mxCell>
        <mxCell id="pQwcLOvFqo98Sgp6cZVr-6" value="&lt;font style=&quot;font-size: 16px;&quot;&gt;Event&lt;/font&gt;" style="text;html=1;align=center;verticalAlign=middle;whiteSpace=wrap;rounded=0;" parent="1" vertex="1">
          <mxGeometry x="190" y="150" width="60" height="30" as="geometry" />
        </mxCell>
        <mxCell id="pQwcLOvFqo98Sgp6cZVr-19" style="rounded=0;orthogonalLoop=1;jettySize=auto;html=1;exitX=0;exitY=0.5;exitDx=0;exitDy=0;entryX=1;entryY=0.5;entryDx=0;entryDy=0;startArrow=classic;startFill=1;" parent="1" source="pQwcLOvFqo98Sgp6cZVr-7" target="pQwcLOvFqo98Sgp6cZVr-1" edge="1">
          <mxGeometry relative="1" as="geometry" />
        </mxCell>
        <mxCell id="pQwcLOvFqo98Sgp6cZVr-20" style="rounded=0;orthogonalLoop=1;jettySize=auto;html=1;exitX=0;exitY=0.5;exitDx=0;exitDy=0;entryX=1;entryY=0.5;entryDx=0;entryDy=0;startArrow=classic;startFill=1;" parent="1" source="pQwcLOvFqo98Sgp6cZVr-7" target="pQwcLOvFqo98Sgp6cZVr-2" edge="1">
          <mxGeometry relative="1" as="geometry" />
        </mxCell>
        <mxCell id="pQwcLOvFqo98Sgp6cZVr-7" value="" style="ellipse;whiteSpace=wrap;html=1;aspect=fixed;" parent="1" vertex="1">
          <mxGeometry x="400" y="225" width="40" height="40" as="geometry" />
        </mxCell>
        <mxCell id="pQwcLOvFqo98Sgp6cZVr-21" style="edgeStyle=orthogonalEdgeStyle;rounded=0;orthogonalLoop=1;jettySize=auto;html=1;exitX=0;exitY=0.5;exitDx=0;exitDy=0;entryX=1;entryY=0.5;entryDx=0;entryDy=0;startArrow=classic;startFill=1;" parent="1" source="pQwcLOvFqo98Sgp6cZVr-9" target="pQwcLOvFqo98Sgp6cZVr-3" edge="1">
          <mxGeometry relative="1" as="geometry" />
        </mxCell>
        <mxCell id="pQwcLOvFqo98Sgp6cZVr-9" value="" style="ellipse;whiteSpace=wrap;html=1;aspect=fixed;" parent="1" vertex="1">
          <mxGeometry x="400" y="320" width="40" height="40" as="geometry" />
        </mxCell>
        <mxCell id="pQwcLOvFqo98Sgp6cZVr-10" value="" style="ellipse;whiteSpace=wrap;html=1;aspect=fixed;" parent="1" vertex="1">
          <mxGeometry x="400" y="390" width="40" height="40" as="geometry" />
        </mxCell>
        <mxCell id="pQwcLOvFqo98Sgp6cZVr-12" value="&lt;font style=&quot;font-size: 16px;&quot;&gt;Bypass event&lt;/font&gt;" style="text;html=1;align=center;verticalAlign=middle;whiteSpace=wrap;rounded=0;" parent="1" vertex="1">
          <mxGeometry x="365" y="150" width="110" height="30" as="geometry" />
        </mxCell>
        <mxCell id="pQwcLOvFqo98Sgp6cZVr-13" value="&lt;font style=&quot;font-size: 16px;&quot;&gt;A&lt;/font&gt;" style="text;html=1;align=center;verticalAlign=middle;whiteSpace=wrap;rounded=0;" parent="1" vertex="1">
          <mxGeometry x="140" y="205" width="60" height="30" as="geometry" />
        </mxCell>
        <mxCell id="pQwcLOvFqo98Sgp6cZVr-14" value="&lt;span style=&quot;font-size: 16px;&quot;&gt;B&lt;/span&gt;" style="text;html=1;align=center;verticalAlign=middle;whiteSpace=wrap;rounded=0;" parent="1" vertex="1">
          <mxGeometry x="140" y="265" width="60" height="30" as="geometry" />
        </mxCell>
        <mxCell id="pQwcLOvFqo98Sgp6cZVr-15" value="&lt;font style=&quot;font-size: 16px;&quot;&gt;C&lt;/font&gt;" style="text;html=1;align=center;verticalAlign=middle;whiteSpace=wrap;rounded=0;" parent="1" vertex="1">
          <mxGeometry x="140" y="325" width="60" height="30" as="geometry" />
        </mxCell>
        <mxCell id="pQwcLOvFqo98Sgp6cZVr-16" value="&lt;font style=&quot;font-size: 16px;&quot;&gt;D&lt;/font&gt;" style="text;html=1;align=center;verticalAlign=middle;whiteSpace=wrap;rounded=0;" parent="1" vertex="1">
          <mxGeometry x="140" y="425" width="60" height="30" as="geometry" />
        </mxCell>
        <mxCell id="pQwcLOvFqo98Sgp6cZVr-22" value="&lt;font style=&quot;font-size: 16px;&quot;&gt;Bypass_E&lt;/font&gt;" style="text;html=1;align=center;verticalAlign=middle;whiteSpace=wrap;rounded=0;" parent="1" vertex="1">
          <mxGeometry x="460" y="230" width="60" height="30" as="geometry" />
        </mxCell>
        <mxCell id="pQwcLOvFqo98Sgp6cZVr-24" value="&lt;font style=&quot;font-size: 16px;&quot;&gt;Bypass_C&lt;/font&gt;" style="text;html=1;align=center;verticalAlign=middle;whiteSpace=wrap;rounded=0;" parent="1" vertex="1">
          <mxGeometry x="460" y="325" width="60" height="30" as="geometry" />
        </mxCell>
        <mxCell id="pQwcLOvFqo98Sgp6cZVr-27" value="Byass_E 可同时影响事件 A 和事件 B" style="text;html=1;align=center;verticalAlign=middle;whiteSpace=wrap;rounded=0;" parent="1" vertex="1">
          <mxGeometry x="380" y="270" width="220" height="30" as="geometry" />
        </mxCell>
        <mxCell id="pQwcLOvFqo98Sgp6cZVr-28" value="Byass_C 为 C 事件对应的 Bypass 事件" style="text;html=1;align=center;verticalAlign=middle;whiteSpace=wrap;rounded=0;" parent="1" vertex="1">
          <mxGeometry x="380" y="360" width="220" height="30" as="geometry" />
        </mxCell>
        <mxCell id="pQwcLOvFqo98Sgp6cZVr-29" value="" style="ellipse;whiteSpace=wrap;html=1;aspect=fixed;" parent="1" vertex="1">
          <mxGeometry x="400" y="450" width="40" height="40" as="geometry" />
        </mxCell>
        <mxCell id="pQwcLOvFqo98Sgp6cZVr-30" value="&lt;font style=&quot;font-size: 16px;&quot;&gt;Bypass_D&lt;/font&gt;" style="text;html=1;align=center;verticalAlign=middle;whiteSpace=wrap;rounded=0;" parent="1" vertex="1">
          <mxGeometry x="460" y="395" width="60" height="30" as="geometry" />
        </mxCell>
        <mxCell id="pQwcLOvFqo98Sgp6cZVr-31" value="&lt;font style=&quot;font-size: 16px;&quot;&gt;Bypass_COMMON&lt;/font&gt;" style="text;html=1;align=center;verticalAlign=middle;whiteSpace=wrap;rounded=0;" parent="1" vertex="1">
          <mxGeometry x="460" y="455" width="123" height="30" as="geometry" />
        </mxCell>
        <mxCell id="pQwcLOvFqo98Sgp6cZVr-32" value="Byass_D 可选择 Bypass_D 和 COMMON 进行 Bypass" style="text;html=1;align=center;verticalAlign=middle;whiteSpace=wrap;rounded=0;" parent="1" vertex="1">
          <mxGeometry x="110" y="470" width="220" height="30" as="geometry" />
        </mxCell>
        <mxCell id="pQwcLOvFqo98Sgp6cZVr-35" value="Byass_COMMON 不影响其他事件" style="text;html=1;align=center;verticalAlign=middle;whiteSpace=wrap;rounded=0;" parent="1" vertex="1">
          <mxGeometry x="380" y="490" width="220" height="30" as="geometry" />
        </mxCell>
      </root>
    </mxGraphModel>
  </diagram>
</mxfile>
